<svg width="405" height="189" viewBox="0 0 405 189" fill="none" xmlns="http://www.w3.org/2000/svg">
<path fill-rule="evenodd" clip-rule="evenodd" d="M52.7451 2.25C52.2701 3.488 44.5741 21.6 35.6431 42.5C17.8071 84.235 15.0741 90.647 10.7031 101L7.74713 108L17.4531 107.99L27.1581 107.98L33.6801 92.24L40.2021 76.5H62.6201H85.0371L92.0181 92.25L98.9991 108H131.328H163.658V61.523V15.046L181.408 14.773L199.158 14.5L199.47 9.56599C199.642 6.85299 199.521 3.58999 199.201 2.31599L198.62 0H126.114H53.6081L52.7451 2.25ZM125.658 46.167C125.658 63.308 125.483 77.146 125.269 76.917C124.476 76.068 97.6581 16.84 97.6581 15.937C97.6581 15.399 103.618 15 111.658 15H125.658V46.167ZM70.3811 43.75L78.4211 61.5L62.8991 61.776C54.3621 61.928 47.2311 61.906 47.0521 61.728C46.5001 61.175 60.8301 26 61.6081 26C62.0111 26 65.9591 33.988 70.3811 43.75ZM263.573 53.75C260.811 58.031 257.483 58.923 251.56 56.968C248.256 55.877 247.599 55.984 244.78 58.068C241.242 60.683 240.972 62.023 243.273 65.535C244.761 67.806 244.76 68.196 243.26 70.484C242.365 71.85 240.401 73.238 238.895 73.568C233.604 74.726 233.53 74.81 233.85 79.205C234.132 83.077 234.428 83.483 237.402 84.087C239.186 84.449 241.323 85.307 242.152 85.995C244.081 87.596 244.086 91.944 242.161 94.692C240.766 96.683 240.88 97.009 243.837 99.497C246.232 101.512 247.639 102.006 249.583 101.512C258.572 99.227 262.101 100.104 263.825 105.049C265.628 110.22 274.423 110.341 276.882 105.227C277.584 103.767 279.389 101.883 280.894 101.039C283.362 99.655 284.068 99.663 288.111 101.117C292.488 102.691 292.676 102.673 296.125 100.328C299.944 97.734 300.515 95.956 298.158 94C294.467 90.937 297.682 85.356 303.867 84.091C306.921 83.467 307.158 83.133 307.158 79.459C307.158 75.668 306.974 75.442 302.833 74.131C297.127 72.326 295.491 69.099 298.035 64.666L299.828 61.541L296.63 58.684C294.299 56.601 292.852 56.011 291.295 56.506C283.174 59.093 279.063 58.213 277.079 53.464C275.711 50.191 275.365 50 270.812 50C266.34 50 265.819 50.27 263.573 53.75ZM280.361 64.637C289.592 67.915 294.371 78.805 289.722 85.969C288.924 87.199 288.07 86.928 284.464 84.299C280.81 81.636 280.204 80.703 280.464 78.139C281.13 71.57 275.096 66 267.316 66C262.399 66 262.052 67.355 266.112 70.702C268.771 72.893 269.449 74.084 269.005 75.782C268.215 78.804 264.418 78.681 260.247 75.5C255.797 72.106 254.658 72.33 254.658 76.599C254.658 82.925 263.024 88.38 270.029 86.622C271.769 86.185 273.458 86.854 276.285 89.101C278.415 90.794 280.158 92.672 280.158 93.276C280.158 94.994 273.684 96.261 267.902 95.676C261.334 95.01 254.957 91.562 251.858 87C249.927 84.158 249.556 82.546 249.886 78.43C250.366 72.446 252.628 69.007 258.158 65.857C264.929 61.999 271.859 61.619 280.361 64.637ZM367.059 111.394C360.441 114.475 357.158 119.002 357.158 125.044C357.158 131.996 359.468 134.563 370.373 139.729C383.673 146.029 385.95 148.708 381.658 153C378.299 156.359 372.445 155.705 367.729 151.445L363.794 147.89L359.608 150.026L355.422 152.161L358.775 155.621C363.271 160.259 370.674 162.39 380.174 161.781C392.351 160.999 400.658 154.52 400.658 145.802C400.658 138.19 396.715 134.509 382.658 129.004C376.443 126.57 372.658 123.496 372.658 120.882C372.658 118.357 376.511 115.999 380.631 116.004C384.263 116.008 390.658 119.185 390.658 120.985C390.658 122.332 392.971 122.27 396.111 120.839C399.37 119.355 399.322 118.011 395.894 114.726C389.606 108.702 376.173 107.15 367.059 111.394ZM6.65813 135.5V161H11.1581H15.6581V145.8C15.6581 135.075 15.9711 130.913 16.7201 131.662C17.3041 132.246 21.0171 138.941 24.9701 146.539C28.9231 154.136 32.6081 160.489 33.1581 160.656C33.7081 160.823 37.7581 153.995 42.1581 145.482C46.5581 136.969 50.4961 130.003 50.9081 130.002C51.3201 130.001 51.6581 136.975 51.6581 145.5V161H60.1581H68.6581V135.461V109.922L59.9081 110.211L51.1581 110.5L44.6581 123.248C41.0831 130.26 37.8461 135.997 37.4661 135.998C37.0851 135.999 33.7621 130.15 30.0821 123L23.3911 110H15.0251H6.65813V135.5ZM87.2921 134.964C81.4431 148.694 76.6581 160.169 76.6581 160.464C76.6581 160.759 78.6401 161 81.0621 161H85.4661L88.4921 153.75L91.5191 146.5H102.145H112.77L115.964 153.729L119.158 160.959L128.408 160.979C133.496 160.991 137.658 160.616 137.658 160.146C137.658 159.676 134.372 152.139 130.355 143.396C126.338 134.653 121.317 123.563 119.197 118.75L115.342 110H106.634H97.9261L87.2921 134.964ZM145.138 111.192C144.853 111.933 144.742 123.331 144.889 136.52L145.158 160.5L153.908 160.789L162.658 161.078V138.922V116.767L169.101 117.177C178.623 117.784 182.233 122.295 179.133 129.714C177.736 133.057 176.641 133.577 168.412 134.799L163.693 135.5L171.296 148.25L178.899 161H188.838C196.505 161 198.612 160.714 198.058 159.75C197.334 158.489 193.118 152.448 186.929 143.804L183.567 139.108L187.706 137.867C189.983 137.185 193.153 135.406 194.752 133.912C197.306 131.526 197.658 130.504 197.658 125.467C197.658 120.204 197.37 119.465 194.128 116.407C188.904 111.48 185.2 110.713 164.407 110.256C149.315 109.925 145.554 110.107 145.138 111.192ZM202.658 113.5V117H210.638H218.619L218.888 138.75L219.158 160.5H228.158H237.158L237.428 138.75L237.697 117H245.678H253.658V113.5V110H228.158H202.658V113.5ZM261.658 135.5V161H270.658H279.658V135.5V110H270.658H261.658V135.5ZM294.658 135.5V161H299.158H303.658V143.417C303.658 131.019 303.984 125.942 304.764 126.202C305.372 126.405 312.045 134.205 319.592 143.535L333.316 160.5L338.987 160.8L344.658 161.1V135.55V110H339.658H334.658V122C334.658 128.6 334.321 133.986 333.908 133.97C333.495 133.953 328.883 128.56 323.658 121.985L314.158 110.031L304.408 110.015L294.658 110V135.5ZM105.868 130.75L109.357 138.5L105.481 138.809C103.349 138.979 100.082 138.979 98.2201 138.809L94.8351 138.5L97.9961 130.75C99.7351 126.488 101.433 123 101.768 123C102.104 123 103.948 126.488 105.868 130.75ZM371.132 166.043C370.797 166.584 372.087 167 374.099 167C376.056 167 377.657 166.663 377.656 166.25C377.653 165.124 371.814 164.939 371.132 166.043ZM4.68813 170.279C3.33013 170.967 1.57613 172.673 0.791127 174.072C-2.51487 179.962 5.11513 186.093 13.0311 183.907C16.6331 182.913 18.3781 181.386 17.2271 180.236C16.8801 179.889 15.3731 180.317 13.8771 181.187C8.90513 184.081 4.30113 179.851 6.13413 174.074C6.93413 171.555 10.7401 170.438 13.4991 171.915C16.8551 173.711 18.3511 173.094 15.7971 170.967C13.1151 168.732 8.33113 168.436 4.68813 170.279ZM22.6291 175.405C20.9951 179.008 19.6581 182.416 19.6581 182.978C19.6581 184.716 21.5311 184.105 22.6581 182C23.3701 180.669 24.7521 180 26.7871 180C29.0041 180 29.9891 180.55 30.3681 182C30.7391 183.417 31.7321 184 33.7751 184C35.3601 184 36.6291 183.663 36.5931 183.25C36.5571 182.837 35.0831 179.575 33.3171 176C28.7651 166.785 26.5921 166.664 22.6291 175.405ZM40.3591 169.632C39.9741 170.018 39.6581 173.408 39.6581 177.167V184H45.6581C48.9911 184 51.6581 183.556 51.6581 183C51.6581 182.45 50.1041 182 48.2061 182H44.7531L44.4561 175.76C44.2321 171.081 43.7711 169.446 42.6091 169.225C41.7571 169.063 40.7451 169.246 40.3591 169.632ZM55.3251 169.667C54.9581 170.033 54.6581 173.408 54.6581 177.167V184H60.7351C66.1501 184 67.1381 183.674 69.8051 181.007C72.9061 177.906 73.0251 175.172 70.1911 172.176C68.0411 169.903 56.9591 168.032 55.3251 169.667ZM75.0931 170.309C74.7941 171.087 74.6871 174.374 74.8541 177.612L75.1581 183.5L80.9081 183.8C84.4471 183.985 86.6581 183.696 86.6581 183.05C86.6581 182.472 85.3081 182 83.6581 182C79.7031 182 79.2881 178.304 83.1891 177.816C84.5811 177.642 85.7201 177.05 85.7201 176.5C85.7201 175.95 84.5811 175.358 83.1891 175.184C79.4701 174.719 79.9421 172 83.7411 172C85.7611 172 86.6831 171.569 86.4131 170.75C85.7991 168.888 75.7881 168.498 75.0931 170.309ZM91.3671 169.624C90.9771 170.014 90.6581 173.438 90.6581 177.233V184.133L93.4081 183.816C96.1161 183.505 96.1581 183.393 96.1581 176.5C96.1581 170.215 95.9491 169.47 94.1171 169.208C92.9941 169.047 91.7571 169.235 91.3671 169.624ZM101.325 169.667C100.958 170.033 100.658 173.408 100.658 177.167C100.658 183.789 100.735 184 103.158 184C105.306 184 105.662 183.543 105.685 180.75L105.712 177.5L108.435 180.759C110.037 182.676 112.085 184.014 113.408 184.009C116.012 183.999 116.167 183.257 114.128 180.562C112.816 178.827 112.874 178.399 114.689 176.467C117.236 173.756 116.426 171.463 112.429 170.07C109.011 168.878 102.355 168.637 101.325 169.667ZM123.885 170.25C123.325 170.938 122.106 173.3 121.175 175.5C117.683 183.76 117.624 184 119.115 184C119.89 184 120.809 183.1 121.158 182C121.627 180.522 122.671 180 125.158 180C127.645 180 128.689 180.522 129.158 182C129.807 184.046 134.658 184.953 134.658 183.029C134.658 181.234 129.59 170.576 128.367 169.799C126.599 168.675 125.04 168.832 123.885 170.25ZM138.408 169.561C137.996 169.986 137.658 173.438 137.658 177.233V184.133L140.403 183.816C142.523 183.572 143.264 182.857 143.653 180.678L144.158 177.856L145.965 180.928C147.198 183.026 148.546 184 150.215 184C153.054 184 153.234 183.268 151.135 180.27C149.734 178.271 149.775 178.008 151.635 177.012C154.002 175.745 154.282 172.763 152.195 171.031C150.479 169.606 139.501 168.436 138.408 169.561ZM158.359 169.632C157.974 170.018 157.658 173.408 157.658 177.167C157.658 183.82 157.725 184 160.202 184C162.72 184 162.743 183.926 162.452 176.761C162.225 171.176 161.804 169.454 160.609 169.226C159.757 169.064 158.745 169.246 158.359 169.632ZM170.991 170.202C169.707 171.882 165.658 181.55 165.658 182.935C165.658 184.818 167.827 184.069 168.368 182C168.759 180.507 169.732 180 172.207 180C174.645 180 175.691 180.53 176.158 182C176.603 183.401 177.671 184 179.725 184C181.338 184 182.629 183.663 182.593 183.25C182.557 182.837 181.083 179.575 179.317 176C176.057 169.401 173.15 167.376 170.991 170.202ZM195.37 169.622C194.978 170.013 194.658 173.408 194.658 177.167V184H200.658C203.991 184 206.658 183.556 206.658 183C206.658 182.45 205.083 182 203.158 182C200.325 182 199.658 181.619 199.658 180C199.658 178.432 200.325 178 202.741 178C206.567 178 206.224 175.644 202.331 175.184C198.515 174.732 198.949 172.195 202.908 171.813C204.696 171.641 206.158 171.05 206.158 170.5C206.158 169.346 196.437 168.554 195.37 169.622ZM219.658 176.5C219.658 180.833 220.08 184 220.658 184C221.208 184 221.658 182.425 221.658 180.5C221.658 176.199 222.996 175.986 224.667 180.021C226.535 184.532 227.355 184.495 229.87 179.785L232.158 175.5L232.465 179.75C232.739 183.528 233.049 184 235.259 184C237.706 184 237.741 183.885 237.452 176.75C237.183 170.113 236.969 169.473 234.924 169.183C233.203 168.938 232.299 169.684 230.989 172.433C230.053 174.395 228.965 176 228.572 176C228.178 176 226.926 174.425 225.791 172.5C224.507 170.324 222.956 169 221.692 169C219.828 169 219.658 169.625 219.658 176.5ZM245.802 170.326C244.754 171.59 239.658 182.539 239.658 183.529C239.658 184.978 242.624 183.683 243.158 182C243.6 180.606 244.671 180 246.69 180C248.564 180 249.966 180.706 250.658 182C251.713 183.971 256.658 184.898 256.658 183.124C256.658 181.446 251.455 170.494 250.311 169.765C248.574 168.658 247.027 168.851 245.802 170.326ZM260.325 169.667C259.958 170.033 259.658 173.408 259.658 177.167C259.658 182.574 259.971 184 261.158 184C262.269 184 262.658 182.833 262.658 179.5C262.658 177.025 262.998 175 263.413 175C263.828 175 265.74 177.008 267.663 179.462C269.585 181.916 271.965 183.941 272.952 183.962C274.542 183.996 274.712 183.176 274.452 176.75C274.153 169.382 272.591 167.273 271.658 172.976L271.158 176.032L268.365 172.516C265.75 169.224 262.071 167.92 260.325 169.667ZM279.367 169.624C278.424 170.568 278.485 180.179 279.444 181.687C282.077 185.829 292.11 185.032 293.224 180.592C294.068 177.23 293.306 169.466 292.158 169.731C291.608 169.858 290.933 172.558 290.658 175.731C290.194 181.085 289.978 181.5 287.658 181.5C285.325 181.5 285.125 181.1 284.658 175.5C284.235 170.42 283.845 169.455 282.117 169.208C280.994 169.047 279.757 169.235 279.367 169.624ZM296.366 169.626C295.07 170.921 295.635 172 297.608 172C299.281 172 299.601 172.818 299.858 177.75C300.142 183.193 300.305 183.517 302.908 183.816C305.637 184.13 305.658 184.088 305.658 178.136C305.658 172.871 305.907 172.1 307.698 171.82C308.819 171.644 309.832 171.05 309.948 170.5C310.188 169.357 297.454 168.537 296.366 169.626ZM313.37 169.622C312.978 170.013 312.658 173.408 312.658 177.167V184H318.658C321.991 184 324.658 183.556 324.658 183C324.658 182.45 323.308 182 321.658 182C317.703 182 317.288 178.304 321.189 177.816C322.581 177.642 323.72 177.05 323.72 176.5C323.72 175.95 322.581 175.358 321.189 175.184C317.47 174.719 317.942 172 321.741 172C323.761 172 324.683 171.569 324.413 170.75C323.966 169.394 314.558 168.433 313.37 169.622ZM329.325 169.667C328.958 170.033 328.658 173.408 328.658 177.167C328.658 182.574 328.971 184 330.158 184C331.269 184 331.658 182.833 331.658 179.5C331.658 177.025 331.995 175.014 332.408 175.031C332.821 175.048 334.673 177.073 336.525 179.531C338.469 182.112 340.706 184 341.819 184C343.571 184 343.719 183.343 343.452 176.75C343.165 169.677 341.473 166.76 340.842 172.25C340.436 175.771 339.564 175.717 336.816 172C334.732 169.181 330.979 168.012 329.325 169.667ZM351.158 170.155C345.961 172.997 345.072 178.607 349.293 181.927C350.742 183.067 352.472 184 353.138 184C353.803 184 355.13 184.864 356.085 185.92C357.749 187.758 357.724 187.858 355.49 188.283C353.761 188.613 354.027 188.763 356.516 188.864C359.543 188.987 359.818 188.774 359.299 186.707C358.831 184.841 359.276 184.205 361.691 183.294C363.323 182.678 364.658 181.685 364.658 181.087C364.658 179.722 361.989 179.656 361.158 181C360.299 182.39 355.312 182.254 353.858 180.8C352.308 179.25 352.308 173.75 353.858 172.2C355.394 170.664 358.155 170.669 360.626 172.212C363.234 173.841 364.673 172.215 362.215 170.418C359.928 168.745 353.993 168.604 351.158 170.155ZM371.802 170.326C370.754 171.59 365.658 182.539 365.658 183.529C365.658 184.978 368.624 183.683 369.158 182C369.627 180.522 370.671 180 373.158 180C375.645 180 376.689 180.522 377.158 182C377.817 184.077 382.658 184.938 382.658 182.978C382.658 182.416 381.336 179.041 379.721 175.478C376.717 168.853 374.319 167.293 371.802 170.326ZM387.735 171.589C382.703 175.823 384.339 181.749 391.161 184.001C397.504 186.094 404.658 182.047 404.658 176.366C404.658 172.992 399.238 169 394.658 169C391.979 169 389.878 169.786 387.735 171.589ZM109.076 171.607C111.351 172.48 111.025 175.671 108.597 176.306C106.346 176.894 105.061 174.998 106.02 172.5C106.667 170.812 106.859 170.756 109.076 171.607ZM146.076 171.607C148.324 172.469 148.038 175.667 145.658 176.29C143.997 176.724 143.658 176.32 143.658 173.906C143.658 170.761 143.72 170.703 146.076 171.607ZM398.032 174.11C400.021 179.79 396.25 184.751 392.513 181.369C390.443 179.495 390.109 175.894 391.726 172.874C393.212 170.097 396.878 170.815 398.032 174.11ZM65.6231 173.934C66.1921 174.998 66.6581 176.541 66.6581 177.363C66.6581 179.461 63.8811 182 61.5871 182C59.9391 182 59.6581 181.272 59.6581 177C59.6581 172.352 59.8321 172 62.1231 172C63.5361 172 65.0291 172.825 65.6231 173.934ZM173.643 176.75C173.651 177.438 172.935 178 172.051 178C170.996 178 170.653 177.456 171.051 176.418C171.385 175.548 171.665 174.311 171.673 173.668C171.694 172.11 173.623 175.129 173.643 176.75ZM27.6581 176.559C27.6581 177.352 26.9831 178 26.1581 178C24.6521 178 24.1021 175.889 25.2971 174.694C26.2311 173.761 27.6581 174.888 27.6581 176.559ZM126.643 177.25C126.651 177.663 125.983 178 125.158 178C123.627 178 123.109 175.882 124.34 174.652C125.011 173.98 126.613 175.787 126.643 177.25ZM248.643 177.25C248.651 177.663 247.983 178 247.158 178C245.627 178 245.109 175.882 246.34 174.652C247.011 173.98 248.613 175.787 248.643 177.25ZM374.643 177.25C374.651 177.663 373.983 178 373.158 178C371.627 178 371.109 175.882 372.34 174.652C373.011 173.98 374.613 175.787 374.643 177.25Z" fill="white"/>
</svg>
