<svg width="500" height="500" viewBox="0 0 500 500" fill="none" xmlns="http://www.w3.org/2000/svg">
<path fill-rule="evenodd" clip-rule="evenodd" d="M0 250V500H250H500V250V0H250H0V250ZM250.543 153.316C250.863 154.59 250.984 157.853 250.812 160.566L250.5 165.5L232.75 165.773L215 166.046V212.523V259H182.67H150.341L143.36 243.25L136.379 227.5H113.962H91.544L85.022 243.24L78.5 258.98L68.795 258.99L59.089 259L62.045 252C66.416 241.647 69.149 235.235 86.985 193.5C95.916 172.6 103.612 154.488 104.087 153.25L104.95 151H177.456H249.962L250.543 153.316ZM149 166.937C149 167.84 175.818 227.068 176.611 227.917C176.825 228.146 177 214.308 177 197.167V166H163C154.96 166 149 166.399 149 166.937ZM105.143 194.701C101.253 204.437 98.216 212.549 98.394 212.728C98.573 212.906 105.704 212.928 114.241 212.776L129.763 212.5L121.723 194.75C117.301 184.988 113.353 177 112.95 177C112.547 177 109.034 184.966 105.143 194.701ZM328.421 204.464C330.405 209.213 334.516 210.093 342.637 207.506C344.194 207.011 345.641 207.601 347.972 209.684L351.17 212.541L349.377 215.666C346.833 220.099 348.469 223.326 354.175 225.131C358.316 226.442 358.5 226.668 358.5 230.459C358.5 234.133 358.263 234.467 355.209 235.091C349.024 236.356 345.809 241.937 349.5 245C351.857 246.956 351.286 248.734 347.467 251.328C344.018 253.673 343.83 253.691 339.453 252.117C335.41 250.663 334.704 250.655 332.236 252.039C330.731 252.883 328.926 254.767 328.224 256.227C326.704 259.389 324.024 260.415 319.501 259.566C317.003 259.097 315.925 258.223 315.167 256.049C313.443 251.104 309.914 250.227 300.925 252.512C298.981 253.006 297.574 252.512 295.179 250.497C292.222 248.009 292.108 247.683 293.503 245.692C295.428 242.944 295.423 238.596 293.494 236.995C292.665 236.307 290.528 235.449 288.744 235.087C285.77 234.483 285.474 234.077 285.192 230.205C284.872 225.81 284.946 225.726 290.237 224.568C291.743 224.238 293.707 222.85 294.602 221.484C296.102 219.196 296.103 218.806 294.615 216.535C292.314 213.023 292.584 211.683 296.122 209.068C298.941 206.984 299.598 206.877 302.902 207.968C308.825 209.923 312.153 209.031 314.915 204.75C317.161 201.27 317.682 201 322.154 201C326.707 201 327.053 201.191 328.421 204.464ZM317.5 213.954C312.507 214.733 306.109 218.313 303.567 221.748C302.468 223.234 301.459 226.548 301.228 229.43C300.898 233.546 301.269 235.158 303.2 238C306.299 242.562 312.676 246.01 319.244 246.676C325.026 247.261 331.5 245.994 331.5 244.276C331.5 243.672 329.757 241.794 327.627 240.101C324.8 237.854 323.111 237.185 321.371 237.622C314.366 239.38 306 233.925 306 227.599C306 223.33 307.139 223.106 311.589 226.5C315.76 229.681 319.557 229.804 320.347 226.782C320.791 225.084 320.113 223.893 317.454 221.702C313.394 218.355 313.741 217 318.658 217C326.438 217 332.472 222.57 331.806 229.139C331.546 231.703 332.152 232.636 335.806 235.299C340.415 238.66 341.242 238.41 342.619 233.243C345.572 222.159 331.951 211.698 317.5 213.954ZM440.11 261.539C444.598 263.122 450 267.486 450 269.527C450 270.775 445.806 273 443.453 273C442.654 273 442 272.543 442 271.985C442 270.185 435.605 267.008 431.973 267.004C427.853 266.999 424 269.357 424 271.882C424 274.496 427.785 277.57 434 280.004C448.057 285.509 452 289.19 452 296.802C452 305.52 443.693 311.999 431.516 312.781C422.016 313.39 414.613 311.259 410.117 306.621L406.764 303.161L410.95 301.026L415.136 298.89L419.071 302.445C423.787 306.705 429.641 307.359 433 304C437.292 299.708 435.015 297.029 421.715 290.729C410.81 285.563 408.5 282.996 408.5 276.044C408.5 270.002 411.783 265.475 418.401 262.394C424.484 259.561 433.499 259.206 440.11 261.539ZM81.424 274C85.104 281.15 88.427 286.999 88.808 286.998C89.188 286.997 92.425 281.26 96 274.248L102.5 261.5L111.25 261.211L120 260.922V286.461V312H111.5H103V296.5C103 287.975 102.662 281.001 102.25 281.002C101.838 281.003 97.9 287.969 93.5 296.482C89.1 304.995 85.05 311.823 84.5 311.656C83.95 311.489 80.265 305.136 76.312 297.539C72.359 289.941 68.646 283.246 68.062 282.662C67.313 281.913 67 286.075 67 296.8V312H62.5H58V286.5V261H66.367H74.733L81.424 274ZM170.539 269.75C172.659 274.563 177.68 285.653 181.697 294.396C185.714 303.139 189 310.676 189 311.146C189 311.616 184.838 311.991 179.75 311.979L170.5 311.959L167.306 304.729L164.112 297.5H153.487H142.861L139.834 304.75L136.808 312H132.404C129.982 312 128 311.759 128 311.464C128 311.169 132.785 299.694 138.634 285.964L149.268 261H157.976H166.684L170.539 269.75ZM238.22 262.873C240.266 263.535 243.528 265.576 245.47 267.407C248.712 270.465 249 271.204 249 276.467C249 281.504 248.648 282.526 246.094 284.912C244.495 286.406 241.325 288.185 239.048 288.867L234.909 290.108L238.271 294.804C244.46 303.448 248.676 309.489 249.4 310.75C249.954 311.714 247.847 312 240.18 312H230.241L222.638 299.25L215.035 286.5L219.754 285.799C227.983 284.577 229.078 284.057 230.475 280.714C233.575 273.295 229.965 268.784 220.443 268.177L214 267.767V289.922V312.078L205.25 311.789L196.5 311.5L196.231 287.52C196.084 274.331 196.195 262.933 196.48 262.192C196.896 261.107 200.657 260.925 215.749 261.256C226.447 261.491 236.097 262.186 238.22 262.873ZM305 264.5V268H297.02H289.039L288.77 289.75L288.5 311.5H279.5H270.5L270.23 289.75L269.961 268H261.98H254V264.5V261H279.5H305V264.5ZM331 286.5V312H322H313V286.5V261H322H331V286.5ZM375 272.985C380.225 279.56 384.837 284.953 385.25 284.97C385.663 284.986 386 279.6 386 273V261H391H396V286.55V312.1L390.329 311.8L384.658 311.5L370.934 294.535C363.387 285.205 356.714 277.405 356.106 277.202C355.326 276.942 355 282.019 355 294.417V312H350.5H346V286.5V261L355.75 261.015L365.5 261.031L375 272.985ZM149.338 281.75L146.177 289.5L149.562 289.809C151.424 289.979 154.691 289.979 156.823 289.809L160.699 289.5L157.21 281.75C155.29 277.488 153.446 274 153.11 274C152.775 274 151.077 277.488 149.338 281.75ZM428.998 317.25C428.999 317.663 427.398 318 425.441 318C423.429 318 422.139 317.584 422.474 317.043C423.156 315.939 428.995 316.124 428.998 317.25ZM67.139 321.967C69.693 324.094 68.197 324.711 64.841 322.915C62.082 321.438 58.276 322.555 57.476 325.074C55.643 330.851 60.247 335.081 65.219 332.187C66.715 331.317 68.222 330.889 68.569 331.236C69.72 332.386 67.975 333.913 64.373 334.907C56.457 337.093 48.827 330.962 52.133 325.072C54.976 320.006 62.834 318.38 67.139 321.967ZM84.659 327C86.425 330.575 87.899 333.837 87.935 334.25C87.971 334.663 86.702 335 85.117 335C83.074 335 82.081 334.417 81.71 333C81.331 331.55 80.346 331 78.129 331C76.094 331 74.712 331.669 74 333C72.873 335.105 71 335.716 71 333.978C71 333.416 72.337 330.008 73.971 326.405C77.934 317.664 80.107 317.785 84.659 327ZM95.798 326.76L96.095 333H99.548C101.446 333 103 333.45 103 334C103 334.556 100.333 335 97 335H91V328.167C91 320.952 91.447 319.749 93.951 320.225C95.113 320.446 95.574 322.081 95.798 326.76ZM116.391 320.95C123.663 322.637 125.724 327.429 121.147 332.007C118.48 334.674 117.492 335 112.077 335H106V328.167C106 324.408 106.3 321.033 106.667 320.667C107.584 319.75 111.737 319.871 116.391 320.95ZM137.755 321.75C138.025 322.569 137.103 323 135.083 323C131.284 323 130.812 325.719 134.531 326.184C135.923 326.358 137.062 326.95 137.062 327.5C137.062 328.05 135.923 328.642 134.531 328.816C130.63 329.304 131.045 333 135 333C136.65 333 138 333.472 138 334.05C138 334.696 135.789 334.985 132.25 334.8L126.5 334.5L126.196 328.612C125.764 320.247 126.052 319.841 132.16 320.197C135.184 320.374 137.514 321.021 137.755 321.75ZM147.5 327.5C147.5 334.393 147.458 334.505 144.75 334.816L142 335.133V328.233C142 320.701 142.401 319.77 145.459 320.208C147.291 320.47 147.5 321.215 147.5 327.5ZM163.771 321.07C167.768 322.463 168.578 324.756 166.031 327.467C164.216 329.399 164.158 329.827 165.47 331.562C167.509 334.257 167.354 334.999 164.75 335.009C163.427 335.014 161.379 333.676 159.777 331.759L157.054 328.5L157.027 331.75C157.004 334.543 156.648 335 154.5 335C152.077 335 152 334.789 152 328.167C152 324.408 152.3 321.033 152.667 320.667C153.697 319.637 160.353 319.878 163.771 321.07ZM179.709 320.799C180.932 321.576 186 332.234 186 334.029C186 335.953 181.149 335.046 180.5 333C180.031 331.522 178.987 331 176.5 331C174.013 331 172.969 331.522 172.5 333C172.151 334.1 171.232 335 170.457 335C168.966 335 169.025 334.76 172.517 326.5C175.202 320.151 176.754 318.921 179.709 320.799ZM203.537 322.031C205.624 323.763 205.344 326.745 202.977 328.012C201.117 329.008 201.076 329.271 202.477 331.27C204.576 334.268 204.396 335 201.557 335C199.888 335 198.54 334.026 197.307 331.928L195.5 328.856L194.995 331.678C194.606 333.857 193.865 334.572 191.745 334.816L189 335.133V328.233C189 324.438 189.338 320.986 189.75 320.561C190.843 319.436 201.821 320.606 203.537 322.031ZM213.794 327.761C214.085 334.926 214.062 335 211.544 335C209.067 335 209 334.82 209 328.167C209 320.952 209.447 319.749 211.951 320.226C213.146 320.454 213.567 322.176 213.794 327.761ZM230.659 327C232.425 330.575 233.899 333.837 233.935 334.25C233.971 334.663 232.68 335 231.067 335C229.013 335 227.945 334.401 227.5 333C227.033 331.53 225.987 331 223.549 331C221.074 331 220.101 331.507 219.71 333C219.169 335.069 217 335.818 217 333.935C217 332.55 221.049 322.882 222.333 321.202C224.492 318.376 227.399 320.401 230.659 327ZM257.5 321.5C257.5 322.05 256.038 322.641 254.25 322.813C250.291 323.195 249.857 325.732 253.673 326.184C257.566 326.644 257.909 329 254.083 329C251.667 329 251 329.432 251 331C251 332.619 251.667 333 254.5 333C256.425 333 258 333.45 258 334C258 334.556 255.333 335 252 335H246V328.167C246 324.408 246.32 321.013 246.712 320.622C247.779 319.554 257.5 320.346 257.5 321.5ZM277.133 323.5C278.268 325.425 279.52 327 279.914 327C280.307 327 281.395 325.395 282.331 323.433C283.641 320.684 284.545 319.938 286.266 320.183C288.311 320.473 288.525 321.113 288.794 327.75C289.083 334.885 289.048 335 286.601 335C284.391 335 284.081 334.528 283.807 330.75L283.5 326.5L281.212 330.785C278.697 335.495 277.877 335.532 276.009 331.021C274.338 326.986 273 327.199 273 331.5C273 333.425 272.55 335 272 335C271.422 335 271 331.833 271 327.5C271 320.625 271.17 320 273.034 320C274.298 320 275.849 321.324 277.133 323.5ZM301.653 320.765C302.797 321.494 308 332.446 308 334.124C308 335.898 303.055 334.971 302 333C301.308 331.706 299.906 331 298.032 331C296.013 331 294.942 331.606 294.5 333C294.151 334.1 293.221 335 292.433 335C290.575 335 290.57 335.03 293.522 328.355C297.147 320.157 298.588 318.812 301.653 320.765ZM319.707 323.516L322.5 327.032L323 323.976C323.933 318.273 325.495 320.382 325.794 327.75C326.054 334.176 325.884 334.996 324.294 334.962C323.307 334.941 320.927 332.916 319.005 330.462C317.082 328.008 315.17 326 314.755 326C314.34 326 314 328.025 314 330.5C314 333.833 313.611 335 312.5 335C311.313 335 311 333.574 311 328.167C311 324.408 311.3 321.033 311.667 320.667C313.413 318.92 317.092 320.224 319.707 323.516ZM336 326.5C336.467 332.1 336.667 332.5 339 332.5C341.32 332.5 341.536 332.085 342 326.731C342.275 323.558 342.95 320.858 343.5 320.731C344.648 320.466 345.41 328.23 344.566 331.592C343.452 336.032 333.419 336.829 330.786 332.687C329.827 331.179 329.766 321.568 330.709 320.624C331.099 320.235 332.336 320.047 333.459 320.208C335.187 320.455 335.577 321.42 336 326.5ZM361.29 321.5C361.174 322.05 360.161 322.644 359.04 322.82C357.249 323.1 357 323.871 357 329.136C357 335.088 356.979 335.13 354.25 334.816C351.647 334.517 351.484 334.193 351.2 328.75C350.943 323.818 350.623 323 348.95 323C346.977 323 346.412 321.921 347.708 320.626C348.796 319.537 361.53 320.357 361.29 321.5ZM375.755 321.75C376.025 322.569 375.103 323 373.083 323C369.284 323 368.812 325.719 372.531 326.184C373.923 326.358 375.062 326.95 375.062 327.5C375.062 328.05 373.923 328.642 372.531 328.816C368.63 329.304 369.045 333 373 333C374.65 333 376 333.45 376 334C376 334.556 373.333 335 370 335H364V328.167C364 324.408 364.32 321.013 364.712 320.622C365.9 319.433 375.308 320.394 375.755 321.75ZM388.158 323C390.906 326.717 391.778 326.771 392.184 323.25C392.815 317.76 394.507 320.677 394.794 327.75C395.061 334.343 394.913 335 393.161 335C392.048 335 389.811 333.112 387.867 330.531C386.015 328.073 384.163 326.048 383.75 326.031C383.337 326.014 383 328.025 383 330.5C383 333.833 382.611 335 381.5 335C380.313 335 380 333.574 380 328.167C380 324.408 380.3 321.033 380.667 320.667C382.321 319.012 386.074 320.181 388.158 323ZM413.557 321.418C416.015 323.215 414.576 324.841 411.968 323.212C409.497 321.669 406.736 321.664 405.2 323.2C403.65 324.75 403.65 330.25 405.2 331.8C406.654 333.254 411.641 333.39 412.5 332C413.331 330.656 416 330.722 416 332.087C416 332.685 414.665 333.678 413.033 334.294C410.618 335.205 410.173 335.841 410.641 337.707C411.16 339.774 410.885 339.987 407.858 339.864C405.369 339.763 405.103 339.613 406.832 339.283C409.066 338.858 409.091 338.758 407.427 336.92C406.472 335.864 405.145 335 404.48 335C403.814 335 402.084 334.067 400.635 332.927C396.414 329.607 397.303 323.997 402.5 321.155C405.335 319.604 411.27 319.745 413.557 321.418ZM431.063 326.478C432.678 330.041 434 333.416 434 333.978C434 335.938 429.159 335.077 428.5 333C428.031 331.522 426.987 331 424.5 331C422.013 331 420.969 331.522 420.5 333C419.966 334.683 417 335.978 417 334.529C417 333.539 422.096 322.59 423.144 321.326C425.661 318.293 428.059 319.853 431.063 326.478ZM452.923 322.589C457.955 326.823 456.319 332.749 449.497 335.001C443.154 337.094 436 333.047 436 327.366C436 323.992 441.42 320 446 320C448.679 320 450.78 320.786 452.923 322.589ZM157.362 323.5C156.403 325.998 157.688 327.894 159.939 327.306C162.367 326.671 162.693 323.48 160.418 322.607C158.201 321.756 158.009 321.812 157.362 323.5ZM195 324.906C195 327.32 195.339 327.724 197 327.29C199.38 326.667 199.666 323.469 197.418 322.607C195.062 321.703 195 321.761 195 324.906ZM443.068 323.874C441.451 326.894 441.785 330.495 443.855 332.369C447.592 335.751 451.363 330.79 449.374 325.11C448.22 321.815 444.554 321.097 443.068 323.874ZM111 328C111 332.272 111.281 333 112.929 333C115.223 333 118 330.461 118 328.363C118 325.453 115.926 323 113.465 323C111.174 323 111 323.352 111 328ZM223.015 324.668C223.007 325.311 222.727 326.548 222.393 327.418C221.995 328.456 222.338 329 223.393 329C224.277 329 224.993 328.438 224.985 327.75C224.965 326.129 223.036 323.11 223.015 324.668ZM76.639 325.694C75.444 326.889 75.994 329 77.5 329C78.325 329 79 328.352 79 327.559C79 325.888 77.573 324.761 76.639 325.694ZM175.682 325.652C174.451 326.882 174.969 329 176.5 329C178.166 329 178.374 328.138 177.166 326.235C176.725 325.539 176.057 325.277 175.682 325.652ZM297.682 325.652C296.451 326.882 296.969 329 298.5 329C300.166 329 300.374 328.138 299.166 326.235C298.725 325.539 298.057 325.277 297.682 325.652ZM423.682 325.652C422.451 326.882 422.969 329 424.5 329C426.166 329 426.374 328.138 425.166 326.235C424.725 325.539 424.057 325.277 423.682 325.652Z" fill="black"/>
</svg>
